<svg xmlns="http://www.w3.org/2000/svg" width="26" height="30" fill="none"><path fill="#F5F6F6" d="m12.882 27.076-.1-.073-.182-.159-.087-.081-.157-.178-.076-.09-.134-.199-.064-.1-.11-.222-.052-.112-.088-.243-.042-.125-.065-.268-.03-.138-.047-.295-.045-.474-.012-.188-.028-.32-.016-.15-.041-.252-.023-.119-.058-.191-.033-.09-.081-.138-.044-.064-.11-.094-.058-.042-.143-.056-.076-.025-.18-.026-.322-.015h-.114l-.178.01-.082.008-.133.03-.064.019-.112.056-.17.125-.082.068-.145.193-.032.048-.052.097-.048.133-.018.08-.054.126-.014.027-.028.036-.04.022h-.019l-.054-.034-.03-.022-.069-.075-.037-.041-.08-.105-.042-.057-.086-.128-.087-.135-.17-.306-.21-.455-.04-.108-.07-.28-.032-.147-.052-.337-.047-.345-.037-.731-.004-.176.006-.324.006-.155.027-.26.008-.059.02-.102.012-.047.025-.075.014-.033.031-.043.053-.027h.013l.063.03.036.02.098.062.053.036.122.087.197.15.15.117.32.2.165.094.37.158.193.074.443.127.116.029.251.056.406.078.243.042.488.06.245.024.487.024.243.008.48-.009.239-.009.467-.042.232-.025.449-.075.221-.04.426-.108.209-.058.395-.137.553-.241.092-.047.172-.081.083-.039.14-.06.066-.026.093-.032.07-.01.016.015.028.065.014.037.025.098.023.106.03.28.012.147.003.306-.032.413-.025.15-.07.285-.04.14-.103.269-.056.133-.14.256-.073.126-.176.247-.093.123-.216.241-.113.12-.259.238-.135.119-.304.239-.51.364-.12.079-.217.157-.106.077-.192.152-.092.076-.165.148-.08.072-.137.142-.065.071-.112.137-.052.069-.084.132-.039.065-.056.127-.054.184-.01.046-.011.138-.006.075-.004.177.016.578.007.093.006.17.003.08-.002.135-.002.062-.01.083-.024.054h-.01l-.047-.022-.028-.014-.077-.045-.082-.05M2.55 18.46v-.005l.028-.082.017-.053.06-.171.034-.096.09-.25.048-.133.114-.318.061-.167.136-.376.072-.194.155-.425.08-.218.17-.462.267-.726.092-.248.176-.48.087-.234.164-.447.08-.22.147-.405.072-.196.128-.353.061-.169.105-.29.05-.137.077-.218.035-.099.046-.135.031-.098.086-.232.003-.003.011-.027.007-.016.02-.051.023-.058.072-.184.04-.102.1-.263.052-.143.127-.335.065-.175.148-.395.076-.204.165-.445.085-.229.18-.483.279-.759.103-.278.185-.505.09-.244.16-.439.08-.211.138-.379.068-.182.12-.323.057-.155.102-.271.049-.13.085-.225.04-.107.072-.184.033-.088.059-.148.028-.07.05-.115.022-.055.04-.09.04-.082.059-.108.028-.047.053-.064.087-.09.025-.025.052-.04.029-.02.08-.03.046-.016.138-.021.079-.01.224-.015.063-.004.147-.005.076-.002.179-.004.093-.002.214-.003.11-.001.253-.002.13-.001.295-.001.153-.001h.34l.176-.001h4.763l.219.236.03.033.073.11.038.061.082.154.225.525.031.09.064.166.032.08.06.138.029.063.048.093.05.071.025.015.038.072.026.133v.012l.013.057.008.033.03.098.017.053.043.133.023.07.056.165.059.17.147.411.252.68.09.236.183.492.09.244.174.47.042.112.079.214.037.103.069.188.033.091.056.157.069.192.053.154.124.35.065.179.138.384.141.388.29.787.07.189.131.352.064.17.113.295.053.139.084.216.02.048.031.078.035.084.019.042.048.119.024.064.055.149.16.47.046.148.104.29.025.067.044.112.055.119.028.053.051.117.044.136.001.008.018.056.01.035.037.104.02.058.052.148.028.08.067.185.034.097.078.217.04.112.089.243.29.796.103.278.187.512.044.121.083.226.039.109.071.196.034.093.058.16.026.074.042.119.019.054.024.071.016.048v.005l-.06-.017-.039-.012-.124-.046-.07-.026-.173-.07-.296-.12-.389-.165-.8-.278-.404-.13-.836-.212-.425-.098-.887-.148-1.4-.156-.096-.008-.16-.014-.075-.005-.126-.014-.059-.008-.094-.015-.044-.008-.07-.018-.063-.019-.07-.053-.06-.114-.036-.122-.088-.292-.047-.153-.108-.343-.056-.178-.123-.384-.063-.197-.135-.416-.139-.423-.299-.9-.15-.451-.305-.9-.076-.222-.147-.43-.074-.211-.139-.403-.069-.197-.129-.367-.063-.178-.114-.32-.055-.154-.097-.264-.046-.125-.077-.199-.035-.09-.052-.124-.048-.09-.053-.049-.11-.065-.056-.027-.111-.026-.056-.007-.111.013-.055.011-.107.05-.052.03-.099.085-.049.047-.088.118-.043.063-.076.15-.094.26-.06.209-.116.385-.06.191-.124.394-.064.203-.153.46-.04.12-.09.264-.15.438-.03.087-.07.207-.036.108-.081.24-.084.248-.186.56-.095.285-.193.584-.272.828-.61 1.871-1.137.116-.383.04-.794.127-.4.071-.811.19-.406.102-.81.245-1.189.425-.097.04-.16.062-.075.03-.121.046-.056.021-.087.032-.04.013-.058.017-.052.014-.043-.008-.015-.01-.002-.043Z"/></svg>