<svg xmlns="http://www.w3.org/2000/svg" width="26" height="26" fill="none"><g clip-path="url(#a)"><path fill="#636363" d="M9.58 16.388v3.21a.909.909 0 0 1-.637.87c-.391.122-.757.052-1.099-.21-2.754-2.113-5.101-4.417-7.04-6.91-.429-.55-.404-1.111.074-1.684C3.124 8.978 5.477 6.7 7.935 4.834a1.024 1.024 0 0 1 1.645.814v3.278c0 .19.095.292.285.308l14.075 1.024c1.066.08 1.586.655 1.559 1.725l-.034 1.309c-.023 1.054-.56 1.62-1.61 1.696L9.938 16c-.24.019-.359.148-.359.387Z"/></g><defs><clipPath id="a"><path fill="#fff" d="M.5.5h25v25H.5z"/></clipPath></defs></svg>