<svg xmlns="http://www.w3.org/2000/svg" width="30" height="30" fill="none"><path fill="#0277BD" d="M25.625 3.125H4.375l1.875 21.25 8.75 2.5 8.75-2.5 1.875-21.25Z"/><path fill="#039BE5" d="M15 5v19.938l7-2L23.563 5H15Z"/><path fill="#fff" d="M20.688 8.125H15v2.5h3.063l-.188 2.5H15v2.5h2.75l-.188 2.813-2.562.875v2.625l4.938-1.625.437-7.188.313-5Z"/><path fill="#EEE" d="M15 8.125v2.5H9.437l-.187-2.5H15Zm-2.875 5 .125 2.5H15v-2.5h-2.875Zm.25 3.75h-2.5l.188 3.438L15 21.938v-2.625l-2.563-.875-.062-1.563Z"/></svg>