<svg xmlns="http://www.w3.org/2000/svg" width="30" height="30" fill="none"><path fill="#E64A19" d="M16.25 10.625h-5a4.375 4.375 0 1 1 0-8.75h5v8.75Z"/><path fill="#7C4DFF" d="M15.625 19.375H11.25a4.375 4.375 0 0 1 0-8.75h4.375v8.75Z"/><path fill="#66BB6A" d="M11.25 28.125a4.375 4.375 0 0 1 0-8.75h4.375v4.375a4.375 4.375 0 0 1-4.375 4.375Z"/><path fill="#FF7043" d="M20 10.625h-4.375v-8.75H20a4.375 4.375 0 0 1 0 8.75Z"/><path fill="#29B6F6" d="M20 19.375a4.375 4.375 0 1 0 0-8.75 4.375 4.375 0 0 0 0 8.75Z"/></svg>