<svg xmlns="http://www.w3.org/2000/svg" width="46" height="45" fill="none"><path fill="#DE9E36" d="M23 3.75c-10.356 0-18.75 8.394-18.75 18.75 0 8.332 5.438 15.385 12.956 17.828h11.588C36.312 37.885 41.75 30.831 41.75 22.5c0-10.356-8.394-18.75-18.75-18.75Z"/><path fill="#242628" d="M34.947 21.876c0-2.166-.733-3.962-1.984-5.37.136-.305.277-.714.348-1.228.16-1.171-.03-1.875-.19-2.563-.162-.688-.352-1.172-.352-1.172s-.865-.088-1.597.162-1.362.44-2.27.981c-.425.253-.853.53-1.191.756-1.447-.401-3.038-.608-4.711-.608-1.688 0-3.293.208-4.75.612-.34-.226-.77-.506-1.198-.76-.908-.543-1.538-.733-2.27-.982-.732-.25-1.597-.162-1.597-.162s-.19.484-.351 1.172c-.162.688-.352 1.392-.19 2.563.072.527.218.944.358 1.25-1.229 1.4-1.949 3.185-1.949 5.348 0 5.609 3.03 8.17 8.551 8.845a4.66 4.66 0 0 0-1.221 2.523c-.363.16-.781.31-1.183.37-1.035.156-2.13 0-2.656-.313-.527-.312-1.152-1.015-1.621-1.7-.396-.577-.967-1.248-1.484-1.484-.684-.312-1.348-.43-1.719-.371-.371.06-.546.332-.468.528.077.195.449.488.84.703.39.215.996.8 1.348 1.367.392.632.468.996.8 1.718.234.508 1.033 1.143 1.602 1.484.488.294 1.464.46 2.52.508.364.017 1.226-.09 1.952-.193v3.516c0 .599-.548 1.055-1.116.95 1.823.613 3.77.924 5.802.924 2.03 0 3.978-.311 5.803-.922-.567.104-1.116-.352-1.116-.951v-5.441a4.66 4.66 0 0 0-1.287-3.211c5.48-.658 8.547-3.158 8.547-8.85Zm-23.91 8.806c-.145-.074-.223-.211-.174-.308.049-.096.206-.114.35-.04.145.074.223.21.174.307-.049.097-.206.115-.35.04Zm1.136.707c-.076.083-.24.057-.365-.058-.126-.114-.166-.274-.09-.357.076-.082.24-.056.365.058.125.115.166.275.09.357Zm.707 1.172c-.096.068-.258.005-.362-.14-.104-.146-.11-.32-.015-.387s.258-.004.362.141c.103.145.11.319.015.386Zm1.015.882c-.065.105-.248.11-.41.012-.16-.099-.24-.264-.175-.369.065-.105.248-.11.41-.011.16.098.24.263.175.368Zm.96.864c-.2-.025-.348-.15-.33-.279.015-.129.19-.213.39-.189.199.024.347.15.33.279-.016.128-.19.213-.39.189Zm1.548.224c-.213-.012-.379-.134-.37-.271.008-.137.187-.24.4-.227.213.012.379.134.37.271-.008.138-.187.24-.4.227Zm1.46-.146c-.226 0-.41-.118-.41-.264 0-.145.184-.263.41-.263.227 0 .411.118.411.263 0 .146-.185.264-.41.264Z"/></svg>