<svg xmlns="http://www.w3.org/2000/svg" width="60" height="60" viewBox="0 0 30 30"><path d="M15 3C8.373 3 3 8.373 3 15s5.373 12 12 12 12-5.373 12-12S21.627 3 15 3zm9.084 7.843c.003.096.018.178.018.278 0 1.043-.196 2.217-.783 3.687l-2.987 8.637a9.924 9.924 0 0 1-2.034.984l-3.116-8.531-2.991 8.692a9.977 9.977 0 0 1-1.833-.742L5.747 11.221a10.03 10.03 0 0 1 1.008-1.868c.102.002.217.005.307.005 1.076 0 2.743-.131 2.743-.131.556-.031.62.783.066.849 0 0-.558.065-1.178.098l3.748 11.151 2.252-6.757-1.602-4.396a18.195 18.195 0 0 1-1.08-.096c-.556-.033-.489-.882.065-.849 0 0 1.7.131 2.71.131 1.076 0 2.743-.131 2.743-.131.556-.031.62.783.066.849 0 0-.559.065-1.178.098l3.72 11.066 1.028-3.434c.522-1.337.783-2.444.783-3.327 0-1.272-.456-2.153-.849-2.838-.521-.849-1.012-1.566-1.012-2.415s.58-1.64 1.431-1.794a10.057 10.057 0 0 1 2.566 3.411z"/></svg>