<svg xmlns="http://www.w3.org/2000/svg" width="46" height="45" fill="none"><path fill="#DE9E36" d="M14.9 2.7C8.447 2.7 3.2 7.947 3.2 14.4v16.2c0 6.453 5.247 11.7 11.7 11.7h16.2c6.453 0 11.7-5.247 11.7-11.7V14.4c0-6.453-5.247-11.7-11.7-11.7H14.9Zm18.9 7.2c.99 0 1.8.81 1.8 1.8s-.81 1.8-1.8 1.8-1.8-.81-1.8-1.8.81-1.8 1.8-1.8ZM23 12.6c5.463 0 9.9 4.437 9.9 9.9s-4.437 9.9-9.9 9.9-9.9-4.437-9.9-9.9 4.437-9.9 9.9-9.9Zm0 1.8c-4.464 0-8.1 3.636-8.1 8.1 0 4.464 3.636 8.1 8.1 8.1 4.464 0 8.1-3.636 8.1-8.1 0-4.464-3.636-8.1-8.1-8.1Z"/></svg>