<svg xmlns="http://www.w3.org/2000/svg" width="70" height="70" fill="none"><path fill="#DE9E36" d="M45.938 6.016c-.93 0-1.641.71-1.641 1.64 0 .93.71 1.64 1.64 1.64h12.47L33.032 34.673c-.657.656-.657 1.695 0 2.297.328.328.765.492 1.148.492.383 0 .82-.164 1.148-.492l25.375-25.376v12.47c0 .93.711 1.64 1.64 1.64.93 0 1.641-.71 1.641-1.64V7.655c0-.93-.71-1.64-1.64-1.64H45.937ZM13.124 16.953a7.095 7.095 0 0 0-7.11 7.11v32.812a7.095 7.095 0 0 0 7.11 7.11h32.813a7.095 7.095 0 0 0 7.109-7.11v-24.61c0-.93-.711-1.64-1.64-1.64-.93 0-1.641.71-1.641 1.64v24.61a3.805 3.805 0 0 1-3.828 3.828H13.124a3.805 3.805 0 0 1-3.828-3.828V24.062a3.805 3.805 0 0 1 3.828-3.828h24.61c.93 0 1.64-.71 1.64-1.64 0-.93-.71-1.64-1.64-1.64h-24.61Z"/></svg>