<svg xmlns="http://www.w3.org/2000/svg" width="46" height="45" fill="none"><path fill="#DE9E36" d="m6.125 35.625-.403-.403-.572-.89-.253-.488-.319-1.35-.066-.385-.093-.928-.047-.487-.056-1.181-.029-.629-.018-1.471-.019-2.616v-8.953l9.384 4.969 9.394 4.968 9.356-4.931 9.366-4.94V26.437l-.028 2.634-.028 1.228-.197 1.94-.131.891-.525 1.36-.32.618-1.002.882-.581.393-1.632.497-.918.216-2.42.234-.665.047-1.5.056-.778.029-1.753.018-.91.01-2.015.009h-5.063l-2.887-.01-1.36-.009-2.23-.028-1.05-.028-1.688-.066-.778-.037-1.238-.113-.572-.065-.89-.169-.403-.094-.638-.234-.581-.263m6.422-18.787-1.257-.675-2.296-1.285-1.088-.628-1.819-1.087-.825-.506-1.134-.77-.235-.168-.3-.262-.187-.244v-.197l.553-.863 1.322-1.537.431-.431.994-.59.3-.123.74-.206.413-.094 1.05-.14.572-.066 1.444-.084.787-.038 1.95-.056 1.04-.019 2.55-.019L23 7.5h1.716l2.887.01 1.36.009 2.23.028 1.05.028 1.688.066.778.037 1.238.113.572.065.89.169.404.094.637.234 1.425 1.022.516.516.806 1.021.553 1.05v.047l-.178.178-.122.104-.403.29-.44.31-1.426.89-.768.478-1.904 1.125-.984.572-2.137 1.219-1.079.61-2.146 1.171-1.05.572-1.913 1.003-.9.469-1.453.703-1.378.553-.066.019-.31-.075-.187-.047-.525-.197-.572-.215-1.687-.76-.91-.422-2.203-1.087-1.134-.572-2.484-1.303Z"/></svg>