<svg xmlns="http://www.w3.org/2000/svg" width="1024" height="1024"><path fill="rgba(0,0,0,1)" d="m515.29 39.56 4.31.01 2.11.01 3.98.04 1.96.02 3.69.05 1.81.04 3.45.08 3.4.09 6.26.28 3.08.15 5.87.43 2.92.24 5.84.61 2.95.33 6.17.82 3.15.43 6.84 1.06 1.77.28 3.73.61 5.92 1 8.46 1.44 16.71 3.53 8.33 1.87 16.42 4.37 8.18 2.29 16.1 5.2 8 2.7 15.75 6.01 7.83 3.1 15.36 6.78 7.63 3.49 14.94 7.55 7.42 3.87 14.49 8.29 7.19 4.24 14.02 9.01 6.94 4.59 13.51 9.72 6.68 4.94 12.96 10.39 6.41 5.28 12.39 11.05 6.12 5.61 11.78 11.69 5.82 5.92 11.14 12.31 5.49 6.23 10.48 12.91 5.16 6.52 9.78 13.49 13.85 20.85 4.83 7.73 8.94 15.64 4.35 7.85 7.97 15.88 3.87 7.98 7.01 16.15 3.39 8.12 6.06 16.45 2.91 8.27 5.12 16.77 2.44 8.43 4.19 17.12 1.97 8.61 3.27 17.49 3.86 26.69.5 4.26.8 9.04.37 4.58.54 9.53.24 4.82.28 9.86.1 4.95.02 10.01-.03 5-.25 9.98-.15 4.97-.51 9.76-.29 4.85-.77 9.38-1.44 13.45-.67 5.23-1.59 10.45-.84 5.22-1.95 10.42-1.02 5.2-2.31 10.36-1.19 5.17-2.65 10.29-1.37 5.14-2.98 10.2-1.54 5.1-3.32 10.11-1.7 5.04-3.64 10-1.86 4.98-3.97 9.87-2.02 4.92-4.28 9.72-2.17 4.84-4.59 9.57-2.33 4.76-4.88 9.39-2.48 4.67-5.18 9.21-2.63 4.57-5.47 9-2.77 4.47-5.75 8.78-2.91 4.35-6.03 8.55-9.34 12.53-3.89 5.03-8.05 9.78-4.07 4.84-8.41 9.4-4.25 4.66-8.77 9.02-4.43 4.46-9.12 8.65-4.6 4.27-9.48 8.27-4.78 4.09-9.83 7.88-4.96 3.89-10.18 7.51-5.13 3.7-10.53 7.12-5.31 3.52-10.88 6.73-5.48 3.32-11.23 6.36-5.66 3.13-11.57 5.97-5.83 2.93-11.92 5.59-6 2.74-12.26 5.2-6.18 2.55-12.6 4.81-6.35 2.36-12.95 4.42-19.8 6.19-2.46.73-4.51 1.32-2.19.63-4.06 1.16-1.98.56-3.71 1-1.82.48-3.48.86-3.44.82-6.64 1.28-3.35.58-7.11.85-1.85.19-3.94.32-2.01.15-4.35.25-2.24.11-4.88.18-2.51.09-5.51.13-2.85.06-6.25.08-3.23.04-7.1.06-3.67.03-8.07.04-2.08.01-4.36.02-6.85.03-4.37.02-8.59.01h-4.25l-8.22-.01h-4.04l-7.65-.03-3.73-.02-6.88-.05-3.32-.03-5.9-.07-1.4-.02-2.59-.04-1.26-.02-2.28-.04-1.1-.02-1.95-.05-.92-.02-1.58-.05-.75-.03-1.19-.06-.55-.02-.78-.06-2.72-.24-5.78-.71-2.93-.4-6.16-1.03-3.13-.56-6.5-1.33-3.29-.7-6.79-1.6-3.43-.84-7.04-1.87-3.55-.97-7.23-2.12-7.28-2.18-14.94-5.03-7.5-2.61-15.1-5.8-7.54-2.98-14.88-6.44-7.38-3.28-14.29-6.94-3.51-1.76-6.85-3.59-9.96-5.48-6.93-3.94-13.4-8.2-6.62-4.16-12.78-8.65-6.32-4.38-12.2-9.11-6.02-4.62-11.64-9.6-5.74-4.86-11.09-10.1-5.48-5.11-10.57-10.62-5.22-5.37-10.07-11.16-14.56-17.36-3.26-4.08-6.3-8.34-3.12-4.2-6.02-8.58-2.98-4.31-5.73-8.81-2.83-4.43-5.45-9.03-2.68-4.53-5.14-9.23-2.54-4.64-4.84-9.43-2.38-4.73-4.53-9.61-2.23-4.82-4.22-9.78-2.07-4.91-3.91-9.94-1.91-4.98-3.58-10.09-1.75-5.06-3.26-10.23-1.59-5.12-2.92-10.36-1.42-5.19-2.59-10.46-1.26-5.25-2.25-10.57-1.08-5.29-1.9-10.67-2.46-16.08-.4-2.93-.69-5.45-.33-2.67-.56-5.06-.53-5-.72-9.59-.15-2.42-.24-4.98-.1-2.52-.15-5.31-.07-2.72-.08-5.83-.04-9.52v-3.44l.08-7.21.05-3.6.17-6.93.04-1.68.11-3.16.05-1.54.12-2.81.06-1.35.13-2.36.2-2.92.72-8.57 2.08-16.95 1.16-8.45 2.95-16.69 1.58-8.32 3.81-16.43 2.01-8.18 4.67-16.15 2.44-8.04 5.51-15.85 2.86-7.89 6.37-15.55 3.28-7.73 7.21-15.23L100.43 285l2.83-5.08 5.75-9.76 2.9-4.83 5.93-9.32 3-4.62 6.18-8.97 3.12-4.45 6.49-8.7 3.29-4.32 6.86-8.52 3.49-4.24 7.3-8.42 3.71-4.2 7.81-8.4 12.35-12.67 3.91-3.9 7.96-7.56 4.01-3.75 8.15-7.24 4.1-3.58 8.34-6.92 4.2-3.42 8.53-6.61 4.28-3.26 8.72-6.29 4.38-3.1 8.9-5.97 4.48-2.94 9.09-5.65 4.56-2.78 9.28-5.33 4.66-2.62 9.46-5.01 4.75-2.46 9.64-4.69 4.85-2.3 9.82-4.36 4.94-2.15 10.01-4.04 5.03-1.98 10.19-3.73 5.13-1.82 10.37-3.4 5.21-1.66 10.56-3.08L405 52.64l2.66-.66 5.07-1.23 2.5-.6 4.79-1.11 4.74-1.08 8.81-1.82 4.32-.86 8.27-1.43 4.09-.66 8.06-1.06 4.03-.49 8.2-.74 4.16-.34 8.69-.46 4.44-.2 9.54-.22 2.45-.05 5.13-.05 8.05-.02M484.01 256H406v600.03l71.5-.53.25-263.74.25-263.74 41.75-.26 41.75-.26.26-35.75.27-35.75M302 756.21l-3.77.29-2.36.32-1.11.22-4.29 1.08-1.98.84-3.89 1.89-1.92 1.31-1.91 1.36-.97.79-1.96 1.63-1 .92-2.72 2.61-1.49 1.64-.61.85-1.13 1.73-.44.97-.83 2.04-.32 1.21-.57 2.58-.22 1.56-.39 3.34-.15 2.04-.14 2.1-.06 1.15-.12 2.38-.05 1.31-.11 2.69-.04 1.48-.1 3.03-.05 1.65-.61 21.73 9.05 9.05 13.88.13 3.33.04 2.65.04 1.5.03 3.11.05 1.7.03 3.47.07 1.83.04 7.53.16 3.88.09 7.74.18 3.64.1 7.47.18 3.81.08 7.57.15 3.54.06 3.47.05 1.62.02 3.16.04 1.42.01 2.72.03H369l12.5-.08-.06-10.37-.03-3.03-.04-1.71-.03-.71-.06-1.34-.05-.56-.1-1.03-.07-.41-.33-1.43-.25-.46-.57-.78-.41-.29-.72-.37-.68-.21-.45-.09-.99-.16-.63-.07-1.35-.14-.83-.05-1.77-.1-1.05-.03-2.23-.07-1.31-.02-2.75-.04-1.59-.01-3.32-.02h-21.56l-.54-14.75-.31-6.58-.26-3.77-.17-1.63-.38-3.08-.24-1.34-.54-2.54-.34-1.12-.73-2.13-.46-.97-.98-1.87-.6-.89-1.27-1.75-.76-.88-1.6-1.77-.94-.94-2.89-2.69-1.9-1.55-.96-.66-1.92-1.26-.97-.52-1.98-.97-1.03-.38-2.08-.7-1.1-.26-2.23-.45-1.2-.14-2.44-.23-1.31-.03-2.69-.01M267 830.19l.07 1.19.07.52.35.59.22.24.82.19 1.97.08h.96l1.51-.09.32-.03.43-.07.18-.03.1-.08v-.05l-.28-.34-.17-.21-.58-.61-2.47-2.49-3.5-3.39m35.43-46.15 2.37.6 1.17.51 2.3 1.19 1.09.8 2.1 1.75.92 1.08 1.75 2.28.69 1.34 1.13 2.46.5 1.47.13.73.2 1.5.01.84-.06 1.78-.1 1.08-.84 4.27-.96 2.25-.73.88-1.62 1.59-1.1.59-2.38 1.07-1.53.38-3.44.74-1.66.18-3.23.23-1.43-.06-2.7-.25-1.03-.31-.98-.33-.39-.21-.71-.45-.25-.27-.71-1.53-.38-1.6-.15-1.01-.26-2.15-.08-1.21-.12-2.49-.02-1.31.07-5.29.24-2.35.28-2.26.19-.95.41-1.76.26-.62 1.85-2.82 1.64-1.35.97-.42 2.03-.68 1.11-.1 2.28-.03M381.09 603l-1.63.1-1.47.16-.88.12-3.79.54-2 .34-1.98.34-.93.18-1.8.34-.77.17-1.43.32-.52.13-.9.26-.18.1-.8.63-.49.61-.23.41-.45.88-.21.55-.4 1.17-.19.71-.38 1.49-.17.88-.35 1.83-.16 1.05-.32 2.19-.15 1.24-.31 2.58-.15 1.44-.47 3.81-.38 2.44-.2 1.08-.42 2.05-.2.79-.4 1.4-.18.37-1.24 1.68-1.12.89-.66.33-1.38.57-.76.17-1.56.27-.8.01-1.62-.05-.8-.15-1.58-.37-.74-.31-1.43-.68-.63-.47-1.19-1.01-.46-.62-.82-1.58-.54-1.49-.24-.91-.48-1.93-.21-1.09-.39-2.26-.16-1.2-.5-3.67-.33-2.13-.18-.92-.35-1.74-.2-.74-.38-1.39-.22-.58-.44-1.1-.24-.45-.51-.83-.28-.34-1.22-1.14-.77-.35-1.74-.62-1.38-.37-.76-.15-3.22-.54-1.62-.13-3.16-.16-1.24.09-1.16.11-.44.1-.78.24-.2.17-.65 1.23-.39 1.49-.17 1.09-.32 2.44-.14 1.58-.27 3.44-.12 2.11-.39 5.3-.31 3.03-.18 1.23-.37 2.27-.2.81-.42 1.39-.21.33-1.55 1.38-1.47.73-.9.26-1.89.46-1.03.13-2.12.2-1.08.01-2.16-.07-1.03-.13-2.01-.32-.89-.26-1.69-.59-.66-.4-1.17-.85-.33-.52-.6-1.77-.36-1.91-.15-1.29-.3-2.8-.12-1.7-.23-3.59-.08-2.07-.26-5.18-.2-3.17-.11-1.33-.22-2.48-.11-.86-.1-.8-.06-.28-.1-.49-.04-.12-1.06-1.42-1.12-.7-.81-.24-1.79-.41-1.18-.1-2.55-.15-1.61.02-2.36.08-1.37.13-.59.1-2.15.54-.81.5-1.46 1.16-.59.88-1.1 1.98-.52 1.37-.91 3.12-.2 1.22-.07.73-.12 1.54-.04.95-.05 2.01v1.24l.01 2.62.02 1.6.07 3.38.06 2.03.12 4.29.08 2.53.33 8.87.12 2.69.06 1.23.13 2.38.06 1.06.13 2.03.06.85.12 1.6.06.61.12 1.11.05.35.11.55.05.04.28.08.4.05.3.03 1.47.11 1.09.06 2.42.13 1.54.07 3.27.14 1.91.07 4 .15 2.23.07 4.61.15 2.5.07 5.12.15 2.7.07 5.5.13 2.85.07 11.57.24 5.73.11 5.68.1 2.75.05 5.43.09 2.56.04 5 .07 2.3.03 4.43.05 1.95.02 3.71.03h1.53l2.83.01 1.03-.01 15-.09.26-30.25.05-6.6v-5.91l-.02-3.58-.02-1.59-.04-3.05-.03-1.31-.06-2.49-.04-1.01-.09-1.88-.05-.7-.11-1.23-.06-.36-.13-.54m220.59-348H598v66.96l2.25.47.81.1.87.08.57.04 1.25.09.76.05 1.57.09.9.05 3.84.2 2.21.09 4.56.19 2.41.08 14.54.57 8.9.43 4.07.24 7.89.49 3.58.27 6.91.56 3.1.31 5.96.64 2.63.34 5.05.71 2.2.38 4.16.79 1.77.42 3.32.87 1.36.47 5.06 2 3.5 1.62 1.79.94 3.6 1.96 1.8 1.08 3.6 2.23 1.77 1.2 3.51 2.44 1.69 1.28 3.33 2.59 1.57 1.33 3.07 2.69 1.4 1.35 2.72 2.72 1.19 1.35 3.62 4.37 2.33 3.09 1.11 1.62 4.33 6.67 1.91 3.53 3.63 7.16 1.49 3.64 1.44 3.64.62 1.82 1.19 3.63.49 1.79 1.01 4.78.54 3.67.19 2.02.33 4.12.1 2.16.14 4.37v2.21l-.06 4.43-.09 2.16-.25 4.29-.2 2.02-.44 3.94-.29 1.77-.64 3.41-.39 1.43-1.96 6.24-1.55 4.12-.89 2.04-1.86 4.06-1.05 2-2.16 3.96-1.18 1.94-2.44 3.85-1.31 1.86-2.7 3.69-1.45 1.78-2.94 3.52-1.56 1.68-3.17 3.31-1.66 1.57-3.23 2.97-2.03 1.78-.96.81-3.8 3.02-1.93 1.31-3.92 2.52-2.23 1.22-2.27 1.21-1.25.62-2.56 1.26-1.41.66-6.48 2.83-4.24 1.61-2.18.69-4.4 1.29-2.36.54-4.83 1-2.67.41-5.52.77-3.11.3-3.17.3-1.69.13-3.46.25-1.84.1-3.76.22-2.01.09-4.11.17-2.2.08-4.49.15-2.4.06-4.89.13-2.62.05-30.25.63v33.18l.02 6.69.02 4.26.02 2 .04 3.91.03 1.8.06 3.47.03 1.54.07 2.94.04 1.24.08 2.31.05.89.09 1.6.05.49.1.78.05.06.19.1.22.05.52.09.37.04.82.07.52.03 1.11.05.65.02 2.87.06h5.57l2.19-.03 4.55-.06 2.5-.05 5.15-.11 2.75-.08 5.59-.16 2.9-.09 5.87-.2 2.99-.12 12.02-.48 5.82-.28 5.76-.29 2.75-.14 5.4-.3 2.51-.16 4.89-.31 2.19-.15 4.21-.32 1.8-.15 3.37-.32 1.32-.15 1.25-.15.53-.08.98-.15.38-.07 5.56-1.31 3.96-1.16 2.09-.71 4.23-1.51 2.19-.87 4.42-1.82 2.26-1.02 9.13-4.34 4.55-2.5 9.04-5.2 4.28-2.83 5.53-3.96 3.9-3.05 2.01-1.69 4.06-3.48 2.04-1.85 4.09-3.79 2.01-1.97 3.99-3.97 1.92-2.02 3.77-4.03 1.76-2 3.43-3.98 1.54-1.92 2.96-3.8 1.26-1.79 3.1-4.66 2.14-3.47 1.09-1.86 4.37-7.77 2.07-4.09 4.04-8.21 1.71-3.91 1.64-3.85.71-1.81 1.34-3.53.53-1.6 1.65-5.42.79-3.36.3-1.89.28-1.94.12-1.08.25-2.24.11-1.28.22-2.67.11-1.54.22-3.22.11-1.86.37-8.23.15-6.03.03-3.18v-13.05l-.16-6.4-.18-6.31-.13-2.97-.28-5.77-.18-2.58-.17-2.51-.1-1.16-.2-2.26-.11-1.01-.22-1.95-.12-.85-.24-1.6-.12-.66-1.21-4.96-1.12-3.66-.71-1.96-1.49-4.02-.88-2.1-1.81-4.27-1.02-2.19-4.31-8.86-2.44-4.38-2.47-4.35-1.29-2.11-2.6-4.15-1.32-1.97-6.79-9.42-4.78-5.99-2.53-2.86-5.15-5.62-2.72-2.68-5.53-5.27-2.91-2.51-5.92-4.92-3.12-2.35-6.33-4.6-3.33-2.18-6.76-4.29-3.55-2.03-7.21-3.99-3.77-1.89-5.81-2.82-3.56-1.62-1.66-.69-3.25-1.31-1.57-.55-3.1-1.04-1.54-.43-3.08-.81-1.58-.34-3.21-.62-1.69-.25-3.47-.46-1.88-.19-3.88-.36L691 258l-2.75-.16-2.41-.13-1.46-.06-3.08-.14-1.75-.08-3.64-.15-2-.08-4.09-.16-2.19-.09-4.44-.16-2.32-.09-9.48-.34-4.85-.16-9.7-.32-4.65-.14-4.59-.15-2.2-.06-4.3-.12-2.01-.06-3.91-.1-1.77-.05-3.41-.08-1.48-.03-2.8-.05-1.14-.02-2.09-.02M379.84 428l-.71.36-.98.58-.71.44-1.57.99-.99.63-2.09 1.35-1.22.79-2.55 1.66-1.41.93-2.92 1.93-1.58 1.05-3.22 2.14-1.7 1.13-3.46 2.32-1.79 1.2-5.26 3.52-3.38 2.23-1.61 1.04-3.14 2.05-1.45.93-2.83 1.8-1.26.79-2.43 1.51-1.04.63-1.96 1.17-.78.45-1.41.79-.47.23-.79.36H325l-.83-.1-.7-.2-.5-.21-1.1-.5-.78-.41-1.72-.93-1.17-.66-1.22-.7-.7-.41-1.46-.86-.84-.49-1.73-1.02-.97-.59-2.03-1.21-1.13-.68-2.35-1.42-1.3-.78-2.7-1.63-1.48-.91-3.08-1.86-1.68-1.02-3.47-2.11-1.9-1.15-7.3-4.33-2.27-1.3-1.06-.59-2.06-1.15-.94-.51-1.8-.96-.78-.4-1.48-.75-.61-.28-1.1-.5-.4-.15-.68-.23h-.15l-1.74.47-.43.4-.18.28-.33.62-.13.41-.24.89-.09.56-.16 1.19-.05.73-.1 1.53-.02.91-.04 1.9V443l.2 3.81.38 2.28.37 1.06.84 2.08.65 1.01 1.44 2.01.98 1.02 2.17 2.08 1.4 1.11 3.01 2.27 1.88 1.26 1.94 1.29 1.06.68 2.21 1.39 1.21.74 2.48 1.51 1.36.81 2.79 1.65 1.51.88 5.44 3.26 3.14 1.98 1.24.82 1.17.78.48.34.89.64.33.26.58.47.16.16.22.27-.03.05-.81.36-1.07.26-.75.14-1.62.26-.95.12-1.99.23-1.07.09-7.46.69-4.38.46-1.91.23-3.63.47-1.55.24-2.94.48-1.23.26-2.3.52-.93.28-1.72.56-.65.3-1.19.62-.42.33-.71.69-.2.37-.46 1.34-.33 1.38-.16.87-.67 3.83-.27 2.09-.26 2.07-.1.98-.18 1.89-.06.8-.07 1.49.01.52.06.89.08.14.14.05.21.03.53.05.4.02.9.05.58.02 1.24.05.75.02 1.57.04.91.02 1.88.03 1.06.02 2.17.03 1.19.02 2.45.02 1.32.02 5.52.04 3.08.02 6.39.02 3.46.01h7.08l3.76-.01 7.63-.01 3.96-.02 57.69-.26.32-5.5.09-6.31-.25-3.66-.26-1.5-.29-1.43-.17-.62-.37-1.17-.22-.48-.45-.88-.25-.32-.53-.57-.29-.15-.77-.23-.83-.16-.56-.08-1.22-.16-.74-.07-1.55-.16-.88-.07-3.78-.29-2.18-.13-4.53-.22-2.39-.08-6.75-.27-2.03-.1-.93-.05-1.79-.1-.78-.05-1.5-.11-.63-.05-1.16-.1-.44-.05-.79-.1-.23-.05-.35-.09v-.04l.21-.26.33-.3.26-.21 1.25-.99.91-.68 2-1.45 1.2-.85 2.52-1.76 1.38-.95 4.13-2.84 2.55-1.77 1.17-.84 2.29-1.64 1.05-.77 2.03-1.51.94-.71 3.49-2.75 1.44-1.25 2.67-2.42 1.06-1.12 1.96-2.22.75-1.06 1.37-2.13.49-1.08.89-2.16.3-1.14.53-2.33.16-1.27.26-4.83-.1-3.51-.15-1.6-.17-1.56-.11-.68-.23-1.3-.13-.51-.27-.93-.15-.28-.3-.44m-30.37-156-3.16.06-1.89.1-.86.08-3.25.45-1.45.42-2.81.98-1.42.74-2.89 1.66-1.65 1.14-4.22 3.63-2.86 3.16-1.43 1.94-2.88 4.1-1.43 2.37-2.85 4.97-1.4 2.79-3.22 5.24-1.23 1.64-.59.69-1.16 1.29-.51.44-2.02 1.63-1.16.72-.57.21-1.14.33-.66.05-1.38.04-.86-.07-1.95-.26-1.08-.3-.45-.24-.84-.56-.33-.39-.61-.89-.24-.59-.42-1.3-.15-.83-.27-1.78-.09-1.11-.14-2.36-.04-1.42-.05-3.02-.01-1.78-.04-5.19-.1-2.82-.11-1.13-.26-2.07-.21-.8-.5-1.43-.37-.52-.81-.9-.56-.29-1.2-.48-.78-.12-1.68-.16h-1.04l-2.23.04-1.34.06-2.41.13-1.35.09-.57.05-2 .26-.71.21-1.25.47-.5.37-.95.83-.51.59-1.59 2.67-.9 2.33-.35 1.37-.66 2.86-.23 1.56-.41 3.18-.1 1.64-.14 3.31.03 1.62.14 3.22.18 1.51.43 2.92.33 1.28.73 2.42.48.96 2.03 3.44 1.61 2.3.92 1.12 1.9 2.24 1.03 1.08 2.12 2.13 1.13.99 2.28 1.96 1.17.89 2.37 1.72 1.2.76 2.4 1.43 1.19.59 2.36 1.09 1.15.4 2.96.97 1.24.29 2.36.43 1.13.03 2.26-.09 1.26-.24 2.66-.6 1.65-.49 2.83-1.06 1.82-.94.95-.64 1.93-1.38 1.09-.9 2.26-1.97 1.32-1.24 3.75-3.76 2.01-2.32.89-1.25 1.74-2.6.89-1.59.91-1.65.49-.93.99-1.93.55-1.1 2.41-4.7 1.46-2.68.67-1.13 1.32-2.12.63-.87 1.22-1.63.6-.64 1.18-1.18.59-.44 1.19-.79.62-.27 1.25-.45.67-.12 1.36-.17h.74l3.63.46 1.98.79.79.66 1.47 1.5.57 1.05 1.04 2.29.4 1.46.64 3.64.05 1.29-.02.7-.09 1.47-.1.83-.24 1.73-.18 1.01-.41 2.1-.27 1.22-.58 2.57-.36 1.49-.77 3.12-.46 1.81-1 4.21-.53 2.52-.18 1.04-.29 1.9-.05.63-.03.58.01.19.04.32.06.05 1.1.4 1.28.19.85.07 1.81.1 1.03.01 2.12.02 1.1-.03 4.43-.18 1.84-.21 1.74-.22.67-.14 1.17-.29.31-.17 2.04-1.82 1.33-1.87.63-1.25 1.26-2.68.59-1.63 1.14-3.45.53-1.98 1.19-5.05.59-3.12.19-1.47.3-2.88.04-1.37.01-2.71-.11-1.32-.29-2.62-.26-1.31-.6-2.61-.41-1.33-.91-2.68-.58-1.4-1.22-2.83-.74-1.5-2.37-4.25-1.71-2.51-.93-1.1-1.91-2.09-1.05-.89-2.14-1.69-1.16-.7-2.4-1.31-1.3-.51-2.68-.93-1.46-.34-2.99-.58-1.62-.16-3.32-.24Z"/><path fill="rgba(229,229,229,1)" d="M406 556.01V256h156.03l-.27 35.75-.26 35.75-41.75.26-41.75.26-.25 263.74-.25 263.74-35.75.26-35.75.27V556.01m-76 278.95-3.64-.1-7.74-.18-3.88-.09-7.53-.16-1.83-.04-3.47-.07-1.7-.03-3.11-.05-1.5-.03-2.65-.04-3.33-.04-13.88-.13-4.53-4.53-4.52-4.52.61-21.73.05-1.65.1-3.03.04-1.48.11-2.69.05-1.31.12-2.38.06-1.15.14-2.1.15-2.04.39-3.34.22-1.56.57-2.58.32-1.21.83-2.04.44-.97 1.13-1.73.61-.85 1.49-1.64 2.72-2.61 1-.92 1.96-1.63.97-.79 1.91-1.36 1.92-1.31 3.89-1.89 1.98-.84 4.29-1.08 1.11-.22 2.36-.32 3.77-.29 1.45-.07 2.69.01 1.31.03 2.44.23 1.2.14 2.23.45 1.1.26 2.08.7 1.03.38 1.98.97.97.52 1.92 1.26.96.66 1.9 1.55 2.89 2.69.94.94 1.6 1.77.76.88 1.27 1.75.6.89.98 1.87.46.97.73 2.13.34 1.12.54 2.54.24 1.34.38 3.08.17 1.63.26 3.77.31 6.58.54 14.75H359.83l3.32.02 1.59.01 2.75.04 1.31.02 2.23.07 1.05.03 1.77.1.83.05 1.35.14.63.07.99.16.45.09.68.21.72.37.41.29.57.78.25.46.33 1.43.07.41.1 1.03.05.56.06 1.34.03.71.04 1.71.03 3.03.06 10.37-12.5.08h-4.22l-2.72-.03-1.42-.01-3.16-.04-1.62-.02-3.47-.05-3.54-.06-7.57-.15-3.81-.08m-30-25.24 1.53-.38 2.38-1.07 1.1-.59 1.62-1.59.73-.88.96-2.25.84-4.27.1-1.08.06-1.78-.01-.84-.2-1.5-.13-.73-.5-1.47-1.13-2.46-.69-1.34-1.75-2.28-.92-1.08-2.1-1.75-1.09-.8-2.3-1.19-1.17-.51-2.37-.6-1.17-.22-2.28.03-1.11.1-2.03.68-.97.42-1.64 1.35-1.85 2.82-.26.62-.41 1.76-.19.95-.28 2.26-.24 2.35-.07 5.29.02 1.31.12 2.49.08 1.21.26 2.15.15 1.01.38 1.6.71 1.53.25.27.71.45.39.21.98.33 1.03.31 2.7.25 1.43.06 3.23-.23 1.66-.18M310 662.76l-2.85-.07-5.5-.13-2.7-.07-5.12-.15-2.5-.07-4.61-.15-2.23-.07-4-.15-1.91-.07-3.27-.14-1.54-.07-2.42-.13-1.09-.06-1.47-.11-.3-.03-.4-.05-.28-.08-.05-.04-.11-.55-.05-.35-.12-1.11-.06-.61-.12-1.6-.06-.85-.13-2.03-.06-1.06-.13-2.38-.06-1.23-.12-2.69-.33-8.87-.08-2.53-.12-4.29-.06-2.03-.07-3.38-.02-1.6-.01-2.62v-1.24l.05-2.01.04-.95.12-1.54.07-.73.2-1.22.91-3.12.52-1.37 1.1-1.98.59-.88 1.46-1.16.81-.5 2.15-.54.59-.1 1.37-.13 2.36-.08 1.61-.02 2.55.15 1.18.1 1.79.41.81.24 1.12.7 1.06 1.42.04.12.1.49.06.28.1.8.11.86.22 2.48.11 1.33.2 3.17.26 5.18.08 2.07.23 3.59.12 1.7.3 2.8.15 1.29.36 1.91.6 1.77.33.52 1.17.85.66.4 1.69.59.89.26 2.01.32 1.03.13 2.16.07 1.08-.01 2.12-.2 1.03-.13 1.89-.46.9-.26 1.47-.73 1.55-1.38.21-.33.42-1.39.2-.81.37-2.27.18-1.23.31-3.03.39-5.3.12-2.11.27-3.44.14-1.58.32-2.44.17-1.09.39-1.49.65-1.23.2-.17.78-.24.44-.1 1.16-.11 1.24-.09 3.16.16 1.62.13 3.22.54.76.15 1.38.37 1.74.62.77.35 1.22 1.14.28.34.51.83.24.45.44 1.1.22.58.38 1.39.2.74.35 1.74.18.92.33 2.13.5 3.67.16 1.2.39 2.26.21 1.09.48 1.93.24.91.54 1.49.82 1.58.46.62 1.19 1.01.63.47 1.43.68.74.31 1.58.37.8.15 1.62.05.8-.01 1.56-.27.76-.17 1.38-.57.66-.33 1.12-.89 1.24-1.68.18-.37.4-1.4.2-.79.42-2.05.2-1.08.38-2.44.47-3.81.15-1.44.31-2.58.15-1.24.32-2.19.16-1.05.35-1.83.17-.88.38-1.49.19-.71.4-1.17.21-.55.45-.88.23-.41.49-.61.8-.63.18-.1.9-.26.52-.13 1.43-.32.77-.17 1.8-.34.93-.18 1.98-.34 2-.34 3.79-.54.88-.12 1.47-.16 1.63-.1h.07l.13.54.06.36.11 1.23.05.7.09 1.88.04 1.01.06 2.49.03 1.31.04 3.05.02 1.59.02 3.58v5.91l-.05 6.6-.26 30.25-15 .09-1.03.01-2.83-.01h-1.53l-3.71-.03-1.95-.02-4.43-.05-2.3-.03-5-.07-2.56-.04-5.43-.09-2.75-.05-5.68-.1-5.72-.11m280.17-75.54-.05-.06-.1-.78-.05-.49-.09-1.6-.05-.89-.08-2.31-.04-1.24-.07-2.94-.03-1.54-.06-3.47-.03-1.8-.04-3.91-.02-2-.02-4.26-.02-6.69V520.3l30.25-.63 2.62-.05 4.89-.13 2.4-.06 4.49-.15 2.2-.08 4.11-.17 2.01-.09 3.76-.22 1.84-.1 3.46-.25 1.69-.13 3.17-.3 3.11-.3 5.52-.77 2.67-.41 4.83-1 2.36-.54 4.4-1.29 2.18-.69 4.24-1.61 6.48-2.83 1.41-.66 2.56-1.26 1.25-.62 2.27-1.21 2.23-1.22 3.92-2.52 1.93-1.31 3.8-3.02.96-.81 2.03-1.78 3.23-2.97 1.66-1.57 3.17-3.31 1.56-1.68 2.94-3.52 1.45-1.78 2.7-3.69 1.31-1.86 2.44-3.85 1.18-1.94 2.16-3.96 1.05-2 1.86-4.06.89-2.04 1.55-4.12 1.96-6.24.39-1.43.64-3.41.29-1.77.44-3.94.2-2.02.25-4.29.09-2.16.06-4.43v-2.21l-.14-4.37-.1-2.16-.33-4.12-.19-2.02-.54-3.67-1.01-4.78-.49-1.79-1.19-3.63-.62-1.82-1.44-3.64-1.49-3.64-3.63-7.16-1.91-3.53-4.33-6.67-1.11-1.62-2.33-3.09-3.62-4.37-1.19-1.35-2.72-2.72-1.4-1.35-3.07-2.69-1.57-1.33-3.33-2.59-1.69-1.28-3.51-2.44-1.77-1.2-3.6-2.23-1.8-1.08-3.6-1.96-1.79-.94-3.5-1.62-5.06-2-1.36-.47-3.32-.87-1.77-.42-4.16-.79-2.2-.38-5.05-.71-2.63-.34-5.96-.64-3.1-.31-6.91-.56-3.58-.27-7.89-.49-4.07-.24-8.9-.43-14.54-.57-2.41-.08-4.56-.19-2.21-.09-3.84-.2-.9-.05-1.57-.09-.76-.05-1.25-.09-.57-.04-.87-.08-.81-.1-2.25-.47V255h4.49l2.09.02 1.14.02 2.8.05 1.48.03 3.41.08 1.77.05 3.91.1 2.01.06 4.3.12 2.2.06 4.59.15 4.65.14 9.7.32 4.85.16 9.48.34 2.32.09 4.44.16 2.19.09 4.09.16 2 .08 3.64.15 1.75.08 3.08.14 1.46.06 2.41.13 2.75.16 2.13.15 3.88.36 1.88.19 3.47.46 1.69.25 3.21.62 1.58.34 3.08.81 1.54.43 3.1 1.04 1.57.55 3.25 1.31 1.66.69 3.56 1.62 5.81 2.82 3.77 1.89 7.21 3.99 3.55 2.03 6.76 4.29 3.33 2.18 6.33 4.6 3.12 2.35 5.92 4.92 2.91 2.51 5.53 5.27 2.72 2.68 5.15 5.62 2.53 2.86 4.78 5.99 6.79 9.42 1.32 1.97 2.6 4.15 1.29 2.11 2.47 4.35 2.44 4.38 4.31 8.86 1.02 2.19 1.81 4.27.88 2.1 1.49 4.02.71 1.96 1.12 3.66 1.21 4.96.12.66.24 1.6.12.85.22 1.95.11 1.01.2 2.26.1 1.16.17 2.51.18 2.58.28 5.77.13 2.97.18 6.31.16 6.4v13.05l-.03 3.18-.15 6.03-.37 8.23-.11 1.86-.22 3.22-.11 1.54-.22 2.67-.11 1.28-.25 2.24-.12 1.08-.28 1.94-.3 1.89-.79 3.36-1.65 5.42-.53 1.6-1.34 3.53-.71 1.81-1.64 3.85-1.71 3.91-4.04 8.21-2.07 4.09-4.37 7.77-1.09 1.86-2.14 3.47-3.1 4.66-1.26 1.79-2.96 3.8-1.54 1.92-3.43 3.98-1.76 2-3.77 4.03-1.92 2.02-3.99 3.97-2.01 1.97-4.09 3.79-2.04 1.85-4.06 3.48-2.01 1.69-3.9 3.05-5.53 3.96-4.28 2.83-9.04 5.2-4.55 2.5-9.13 4.34-2.26 1.02-4.42 1.82-2.19.87-4.23 1.51-2.09.71-3.96 1.16-5.56 1.31-.38.07-.98.15-.53.08-1.25.15-1.32.15-3.37.32-1.8.15-4.21.32-2.19.15-4.89.31-2.51.16-5.4.3-2.75.14-5.76.29-5.82.28-12.02.48-2.99.12-5.87.2-2.9.09-5.59.16-2.75.08-5.15.11-2.5.05-4.55.06-2.19.03h-5.57l-2.87-.06-.65-.02-1.11-.05-.52-.03-.82-.07-.37-.04-.52-.09-.22-.05m-336.31-80.34-.08-.14-.06-.89-.01-.52.07-1.49.06-.8.18-1.89.1-.98.26-2.07.27-2.09.67-3.83.16-.87.33-1.38.46-1.34.2-.37.71-.69.42-.33 1.19-.62.65-.3 1.72-.56.93-.28 2.3-.52 1.23-.26 2.94-.48 1.55-.24 3.63-.47 1.91-.23 4.38-.46 7.46-.69 1.07-.09 1.99-.23.95-.12 1.62-.26.75-.14 1.07-.26.81-.36.03-.05-.22-.27-.16-.16-.58-.47-.33-.26-.89-.64-.48-.34-1.17-.78-1.24-.82-3.14-1.98-5.44-3.26-1.51-.88-2.79-1.65-1.36-.81-2.48-1.51-1.21-.74-2.21-1.39-1.06-.68-1.94-1.29-1.88-1.26-3.01-2.27-1.4-1.11-2.17-2.08-.98-1.02-1.44-2.01-.65-1.01-.84-2.08-.37-1.06-.38-2.28-.2-3.81v-1.11l.04-1.9.02-.91.1-1.53.05-.73.16-1.19.09-.56.24-.89.13-.41.33-.62.18-.28.43-.4 1.74-.47h.15l.68.23.4.15 1.1.5.61.28 1.48.75.78.4 1.8.96.94.51 2.06 1.15 1.06.59 2.27 1.3 7.3 4.33 1.9 1.15 3.47 2.11 1.68 1.02 3.08 1.86 1.48.91 2.7 1.63 1.3.78 2.35 1.42 1.13.68 2.03 1.21.97.59 1.73 1.02.84.49 1.46.86.7.41 1.22.7 1.17.66 1.72.93.78.41 1.1.5.5.21.7.2.83.1h.13l.79-.36.47-.23 1.41-.79.78-.45 1.96-1.17 1.04-.63 2.43-1.51 1.26-.79 2.83-1.8 1.45-.93 3.14-2.05 1.61-1.04 3.38-2.23 5.26-3.52 1.79-1.2 3.46-2.32 1.7-1.13 3.22-2.14 1.58-1.05 2.92-1.93 1.41-.93 2.55-1.66 1.22-.79 2.09-1.35.99-.63 1.57-.99.71-.44.98-.58.71-.36h.16l.3.44.15.28.27.93.13.51.23 1.3.11.68.17 1.56.15 1.6.1 3.51-.26 4.83-.16 1.27-.53 2.33-.3 1.14-.89 2.16-.49 1.08-1.37 2.13-.75 1.06-1.96 2.22-1.06 1.12-2.67 2.42-1.44 1.25-3.49 2.75-.94.71-2.03 1.51-1.05.77-2.29 1.64-1.17.84-2.55 1.77-4.13 2.84-1.38.95-2.52 1.76-1.2.85-2 1.45-.91.68-1.25.99-.26.21-.33.3-.21.26v.04l.35.09.23.05.79.1.44.05 1.16.1.63.05 1.5.11.78.05 1.79.1.93.05 2.03.1 6.75.27 2.39.08 4.53.22 2.18.13 3.78.29.88.07 1.55.16.74.07 1.22.16.56.08.83.16.77.23.29.15.53.57.25.32.45.88.22.48.37 1.17.17.62.29 1.43.26 1.5.25 3.66-.09 6.31-.32 5.5-57.69.26-3.96.02-7.63.01-3.76.01h-7.08l-3.46-.01-6.39-.02-3.08-.02-5.52-.04-1.32-.02-2.45-.02-1.19-.02-2.17-.03-1.06-.02-1.88-.03-.91-.02-1.57-.04-.75-.02-1.24-.05-.58-.02-.9-.05-.4-.02-.53-.05-.21-.03m27.56-169.12-1.15-.4-2.36-1.09-1.19-.59-2.4-1.43-1.2-.76-2.37-1.72-1.17-.89-2.28-1.96-1.13-.99-2.12-2.13-1.03-1.08-1.9-2.24-.92-1.12-1.61-2.3-2.03-3.44-.48-.96-.73-2.42-.33-1.28-.43-2.92-.18-1.51-.14-3.22-.03-1.62.14-3.31.1-1.64.41-3.18.23-1.56.66-2.86.35-1.37.9-2.33 1.59-2.67.51-.59.95-.83.5-.37 1.25-.47.71-.21 2-.26.57-.05 1.35-.09 2.41-.13 1.34-.06 2.23-.04h1.04l1.68.16.78.12 1.2.48.56.29.81.9.37.52.5 1.43.21.8.26 2.07.11 1.13.1 2.82.04 5.19.01 1.78.05 3.02.04 1.42.14 2.36.09 1.11.27 1.78.15.83.42 1.3.24.59.61.89.33.39.84.56.45.24 1.08.3 1.95.26.86.07 1.38-.04.66-.05 1.14-.33.57-.21 1.16-.72 2.02-1.63.51-.44 1.16-1.29.59-.69 1.23-1.64 3.22-5.24 1.4-2.79 2.85-4.97 1.43-2.37 2.88-4.1 1.43-1.94 2.86-3.16 4.22-3.63 1.65-1.14 2.89-1.66 1.42-.74 2.81-.98 1.45-.42 3.25-.45.86-.08 1.89-.1 3.16-.06h1.8l3.32.24 1.62.16 2.99.58 1.46.34 2.68.93 1.3.51 2.4 1.31 1.16.7 2.14 1.69 1.05.89 1.91 2.09.93 1.1 1.71 2.51 2.37 4.25.74 1.5 1.22 2.83.58 1.4.91 2.68.41 1.33.6 2.61.26 1.31.29 2.62.11 1.32-.01 2.71-.04 1.37-.3 2.88-.19 1.47-.59 3.12-1.19 5.05-.53 1.98-1.14 3.45-.59 1.63-1.26 2.68-.63 1.25-1.33 1.87-2.04 1.82-.31.17-1.17.29-.67.14-1.74.22-1.84.21-4.43.18-1.1.03-2.12-.02-1.03-.01-1.81-.1-.85-.07-1.28-.19-1.1-.4-.06-.05-.04-.32-.01-.19.03-.58.05-.63.29-1.9.18-1.04.53-2.52 1-4.21.46-1.81.77-3.12.36-1.49.58-2.57.27-1.22.41-2.1.18-1.01.24-1.73.1-.83.09-1.47.02-.7-.05-1.29-.64-3.64-.4-1.46-1.04-2.29-.57-1.05-1.47-1.5-.79-.66-1.98-.79-3.63-.46h-.74l-1.36.17-.67.12-1.25.45-.62.27-1.19.79-.59.44-1.18 1.18-.6.64-1.22 1.63-.63.87-1.32 2.12-.67 1.13-1.46 2.68-2.41 4.7-.55 1.1-.99 1.93-.49.93-.91 1.65-.89 1.59-1.74 2.6-.89 1.25-2.01 2.32-3.75 3.76-1.32 1.24-2.26 1.97-1.09.9-1.93 1.38-.95.64-1.82.94-2.83 1.06-1.65.49-2.66.6-1.26.24-2.26.09-1.13-.03-2.36-.43-1.24-.29Z"/></svg>