<svg xmlns="http://www.w3.org/2000/svg" width="30" height="30" fill="none"><path fill="#609FFF" d="M20.404 3.375a.371.371 0 0 0-.39.356.377.377 0 0 0 .356.394h.018a.373.373 0 0 0 .372-.36.37.37 0 0 0-.356-.39Zm-10.324.037a.376.376 0 0 0-.086.747h.04a.373.373 0 0 0 .372-.33.373.373 0 0 0-.326-.417Zm8.855.241a.377.377 0 0 0-.362.513c.06.146.203.24.354.24a.375.375 0 0 0 .349-.51.378.378 0 0 0-.34-.243Zm-10.402.044a.372.372 0 0 0-.256.571.369.369 0 0 0 .513.116.376.376 0 0 0 .12-.518.376.376 0 0 0-.377-.17Zm2.944.156a.379.379 0 0 0-.354.212.378.378 0 0 0 .18.502.375.375 0 0 0 .499-.18.377.377 0 0 0-.325-.534Zm10.256.1a.367.367 0 0 0-.264.108.37.37 0 0 0-.004.53.365.365 0 0 0 .266.111.373.373 0 0 0 .002-.749Zm-4.2.4a.376.376 0 0 0-.253.575.381.381 0 0 0 .521.108.377.377 0 0 0 .113-.517.38.38 0 0 0-.381-.167Zm-4.777.262a.375.375 0 0 0-.224.684h.001c.617.435 1.264.996 1.918 1.645a26.918 26.918 0 0 0-2.233 2.742 25.632 25.632 0 0 0-3.988.66c-.229-.901-.383-1.747-.438-2.498a.375.375 0 1 0-.748.054c.058.806.22 1.697.458 2.637-.74.216-1.423.462-2.032.738a.376.376 0 0 0-.092.057c-.023.006-.046.007-.068.017a.376.376 0 0 0-.18.499.375.375 0 0 0 .341.214.384.384 0 0 0 .158-.034c.02-.01.034-.027.052-.04a.379.379 0 0 0 .098-.03 14.588 14.588 0 0 1 1.915-.694 26.88 26.88 0 0 0 1.424 3.736 27.62 27.62 0 0 0-1.3 3.312c-.75-.214-1.439-.458-2.038-.73h-.003a.374.374 0 0 0-.428.598.375.375 0 0 0 .115.083l.007.005.02.006c.632.285 1.345.538 2.117.759-.108.387-.206.768-.285 1.136a.375.375 0 1 0 .734.157c.075-.354.171-.724.276-1.1 1.083.267 2.272.466 3.537.593a27.417 27.417 0 0 0 2.584 3.234c-.377.375-.752.726-1.12 1.031a.377.377 0 0 0 .063.624.375.375 0 0 0 .416-.046c.384-.32.773-.682 1.163-1.068a16.938 16.938 0 0 0 1.641 1.447l.007.007v-.002a.375.375 0 1 0 .455-.596 16.126 16.126 0 0 1-1.579-1.395 27.415 27.415 0 0 0 2.587-3.231 25.566 25.566 0 0 0 3.55-.595c.179.64.318 1.254.413 1.83a.375.375 0 0 0 .74-.122c-.099-.602-.242-1.237-.425-1.896a16.466 16.466 0 0 0 1.779-.608.375.375 0 1 0-.288-.693c-.517.214-1.092.408-1.71.582a27.512 27.512 0 0 0-1.302-3.328 26.875 26.875 0 0 0 1.424-3.737c.43.124.843.255 1.224.4a.374.374 0 0 0 .485-.215.376.376 0 0 0-.214-.485l-.003-.001h-.002a17.087 17.087 0 0 0-1.288-.422c.165-.647.294-1.271.375-1.858v-.001a.376.376 0 0 0-.615-.342.375.375 0 0 0-.127.236v.002a16.076 16.076 0 0 1-.357 1.764 25.845 25.845 0 0 0-4.002-.65 26.892 26.892 0 0 0-2.24-2.75 16.039 16.039 0 0 1 1.597-1.41.375.375 0 1 0-.452-.597c-.55.417-1.112.914-1.675 1.474-.678-.671-1.352-1.257-2.008-1.718a.375.375 0 0 0-.21-.071Zm-5.076.244a.376.376 0 1 0 .027.751.376.376 0 0 0-.027-.751Zm14.791.413a.376.376 0 1 0 .036.735.376.376 0 0 0-.036-.735ZM7.43 6.326a.375.375 0 0 0-.398.353.368.368 0 0 0 .353.393c.007.004.015.004.022.004a.38.38 0 0 0 .375-.352.377.377 0 0 0-.352-.398Zm15.15.428a.374.374 0 0 0-.371.378c0 .207.169.372.375.372a.376.376 0 0 0 .375-.375.377.377 0 0 0-.379-.375Zm-7.6.726a25.802 25.802 0 0 1 1.782 2.138A31.97 31.97 0 0 0 15 9.565c-.615 0-1.214.023-1.806.056A25.741 25.741 0 0 1 14.98 7.48ZM15 10.314c.8 0 1.58.032 2.338.09a32.132 32.132 0 0 1 2.68 4.588 32.304 32.304 0 0 1-1.174 2.23l-.005.01a32.384 32.384 0 0 1-1.179 1.883 30.658 30.658 0 0 1-5.358-.003 32.261 32.261 0 0 1-1.177-1.876 32.087 32.087 0 0 1-1.174-2.244 32.316 32.316 0 0 1 1.177-2.238c.477-.827.979-1.609 1.492-2.344.771-.06 1.564-.096 2.38-.096Zm3.302.181c1.162.128 2.252.32 3.241.565-.285.97-.662 1.995-1.127 3.054a33.54 33.54 0 0 0-.915-1.708c-.385-.668-.789-1.3-1.199-1.91Zm-6.65.008c-.401.6-.796 1.221-1.174 1.876l-.005.009v.002a33.58 33.58 0 0 0-.924 1.72 25.944 25.944 0 0 1-1.125-3.039c.984-.247 2.07-.438 3.228-.568Zm13.375 1.044a.373.373 0 0 0-.21.703.374.374 0 0 0 .506-.154.376.376 0 0 0-.296-.549Zm-20.792.517a.374.374 0 0 0-.372.584c.075.105.19.161.307.161.075 0 .15-.022.213-.071l.004.004a.378.378 0 0 0-.152-.678Zm21.975.31a.374.374 0 0 0-.211.66.37.37 0 0 0 .529-.045.374.374 0 0 0-.046-.525.372.372 0 0 0-.272-.09ZM15 12.753a2.25 2.25 0 1 0 0 4.5 2.25 2.25 0 0 0 0-4.5Zm-11.974.339a.368.368 0 0 0-.244.15.377.377 0 0 0 .304.597.373.373 0 0 0 .304-.158.376.376 0 0 0-.363-.59Zm24.137.44a.367.367 0 0 0-.144.036.373.373 0 0 0 .158.713.377.377 0 0 0 .341-.532.377.377 0 0 0-.355-.217Zm-24.553.951a.375.375 0 0 0 .019.75h.015a.37.37 0 0 0 .356-.39.374.374 0 0 0-.39-.36Zm24.637.51a.375.375 0 0 0-.322.26v.003a.377.377 0 0 0 .248.469.378.378 0 0 0 .469-.247.377.377 0 0 0-.395-.486Zm-24.016.855a.376.376 0 1 0-.04.747.374.374 0 0 0 .04-.747Zm6.315.025c.29.577.593 1.157.929 1.74.277.48.564.942.854 1.394-.99-.123-1.925-.29-2.784-.5.267-.844.602-1.728 1-2.634Zm10.872 0c.4.909.732 1.793 1 2.64-.864.21-1.798.38-2.794.502a33.722 33.722 0 0 0 .88-1.436c.33-.571.63-1.14.914-1.706Zm6.05.353a.373.373 0 0 0-.267.102.383.383 0 0 0-.015.533.383.383 0 0 0 .274.112.375.375 0 0 0 .259-.1.378.378 0 0 0 .01-.533.378.378 0 0 0-.26-.114Zm-22.231.615a.374.374 0 0 0-.135.68.37.37 0 0 0 .518-.105.37.37 0 0 0-.101-.517.376.376 0 0 0-.282-.058Zm20.966.269a.373.373 0 0 0-.277.557.363.363 0 0 0 .323.188.373.373 0 0 0 .326-.559.374.374 0 0 0-.372-.186ZM12.85 19.902c.7.047 1.415.08 2.15.08.72 0 1.421-.03 2.109-.076a26.295 26.295 0 0 1-2.13 2.61 26.411 26.411 0 0 1-2.13-2.614Zm-5.361 1.454a.379.379 0 0 0-.417.334.378.378 0 0 0 .334.412c.015 0 .026.004.041.004a.373.373 0 0 0 .372-.337.372.372 0 0 0-.33-.413Zm15.056.555a.374.374 0 0 0 .022.746h.023a.375.375 0 1 0-.045-.746Zm-15.169.941a.375.375 0 0 0 .019.75h.019a.373.373 0 0 0 .353-.393.372.372 0 0 0-.39-.357Zm15.203.555a.38.38 0 0 0-.424.323.379.379 0 0 0 .322.424l.05.003a.376.376 0 0 0 .053-.75Zm-14.898.916a.377.377 0 0 0-.376.502.374.374 0 0 0 .48.225.37.37 0 0 0 .225-.477.367.367 0 0 0-.33-.25Zm5.062.367a.383.383 0 0 0-.282.06.378.378 0 0 0-.093.521.387.387 0 0 0 .525.097.382.382 0 0 0 .093-.524.38.38 0 0 0-.243-.154Zm9.387.143a.375.375 0 0 0-.373.184.379.379 0 0 0 .14.513.378.378 0 0 0 .513-.138.374.374 0 0 0-.28-.56Zm-3.99.37a.38.38 0 0 0-.369.192.379.379 0 0 0 .146.51c.06.03.12.045.184.045a.373.373 0 0 0 .039-.746Zm-6.771.233a.378.378 0 0 0-.329.533.373.373 0 0 0 .341.217.378.378 0 0 0 .341-.532.377.377 0 0 0-.353-.218Zm-2.92.092a.375.375 0 0 0-.144.678.368.368 0 0 0 .522-.099.378.378 0 0 0-.097-.52.37.37 0 0 0-.28-.06Zm12.546.246a.376.376 0 1 0-.032.75.374.374 0 0 0 .356-.491.37.37 0 0 0-.324-.26Zm-1.57.001a.376.376 0 0 0-.034.737v-.003c.03.01.064.015.094.015a.382.382 0 0 0 .364-.285.379.379 0 0 0-.424-.464Zm-9.51.081a.374.374 0 0 0 .033.746h.034a.372.372 0 0 0 .338-.408.37.37 0 0 0-.405-.338Z"/></svg>