<svg xmlns="http://www.w3.org/2000/svg" width="30" height="30" fill="none"><path fill="#29B6F6" d="M27.5 6.944v16.112c0 .794-.494 1.5-1.238 1.763l-5.512 2.587.5-6.781V9.375l-.5-6.781 5.512 2.587A1.863 1.863 0 0 1 27.5 6.944Z"/><path fill="#0277BD" d="M5.625 21.185 21.25 9.375v-6.03c0-.748-.926-1.098-1.422-.537L2.911 18.274a1.25 1.25 0 0 0 .067 1.895s.828.77 1.127.984c.46.328 1.064.366 1.52.032Z"/><path fill="#0288D1" d="m5.625 8.815 15.625 11.81v6.03c0 .748-.926 1.098-1.422.537L2.911 11.726a1.25 1.25 0 0 1 .067-1.895s.828-.77 1.127-.984c.46-.328 1.064-.366 1.52-.032Z"/></svg>